<svg width="200" height="116" viewBox="0 0 200 116" fill="none" xmlns="http://www.w3.org/2000/svg">
<path d="M114.681 26.4295L108.362 52.7518C108.266 53.1539 108.28 53.5748 108.405 53.9692L114.869 74.4353C114.987 74.8078 115.198 75.1438 115.483 75.411L132.732 91.5783C133.083 91.9078 133.321 92.3404 133.411 92.8137L137.476 114.149C137.681 115.223 138.62 116 139.714 116H197.721C199.15 116 200.226 114.7 199.959 113.296L196.057 92.8137C195.967 92.3404 195.729 91.9078 195.377 91.5783L178.16 75.4402C177.855 75.1546 177.635 74.7906 177.523 74.3882L172.381 55.881C172.147 55.0396 171.453 54.406 170.594 54.2498L160.674 52.4465C159.922 52.3098 159.289 51.8052 158.988 51.1029L137.674 1.3804C136.881 -0.470262 134.252 -0.456989 133.477 1.40159L124.669 22.5377C124.355 23.2922 123.66 23.8204 122.849 23.9217L116.613 24.7011C115.672 24.8187 114.902 25.5073 114.681 26.4295Z" fill="#012C56"/>
<path d="M45.0544 28.375L35.318 51.0888L27.9421 67.9448C27.5794 68.7738 26.7601 69.3095 25.8551 69.3095H19.7544C18.8333 69.3095 18.0029 69.8641 17.6501 70.7147L0.17607 112.85C-0.445889 114.35 0.656519 116 2.28037 116H128.187C129.634 116 130.714 114.669 130.416 113.253L126.586 95.0648C126.49 94.6079 126.256 94.1917 125.915 93.8724L108.68 77.7178C108.376 77.4321 108.155 77.0682 108.044 76.6658L102.902 58.1586C102.668 57.3172 101.974 56.6836 101.114 56.5273L91.1946 54.7241C90.4426 54.5874 89.8093 54.0828 89.5082 53.3804L68.1946 3.65799C67.4013 1.80732 64.7725 1.8206 63.998 3.67918L55.1896 24.8153C54.8752 25.5698 54.1805 26.098 53.3694 26.1993L46.8656 27.0121C46.0626 27.1125 45.3731 27.6313 45.0544 28.375Z" fill="#012C56"/>
</svg>
