<svg width="262" height="36" viewBox="0 0 262 36" fill="none" xmlns="http://www.w3.org/2000/svg">
<path d="M35.0028 8.94904L33.1072 16.8911C33.0783 17.0124 33.0827 17.1394 33.1201 17.2584L35.0594 23.4335C35.0947 23.5459 35.1581 23.6473 35.2436 23.7279L40.4181 28.606C40.5236 28.7054 40.595 28.8359 40.6221 28.9787L41.8414 35.416C41.9028 35.7401 42.1846 35.9746 42.5128 35.9746H59.915C60.3437 35.9746 60.6666 35.5823 60.5864 35.1588L59.4157 28.9787C59.3886 28.8359 59.3172 28.7054 59.2118 28.606L54.0466 23.7367C53.9552 23.6506 53.8891 23.5407 53.8556 23.4193L52.313 17.8353C52.2429 17.5814 52.0346 17.3902 51.7768 17.3431L48.8009 16.799C48.5753 16.7577 48.3853 16.6055 48.295 16.3936L41.9009 1.39111C41.6629 0.83272 40.8742 0.836725 40.6419 1.3975L37.9994 7.77479C37.905 8.00243 37.6966 8.16179 37.4533 8.19238L35.5826 8.42752C35.3002 8.46301 35.0692 8.67077 35.0028 8.94904Z" fill="white"/>
<path d="M14.1149 9.53602L11.194 16.3893L8.98127 21.4752C8.87244 21.7253 8.62668 21.887 8.35516 21.887H6.52496C6.24864 21.887 5.9995 22.0543 5.89367 22.311L0.651454 35.0242C0.464866 35.4767 0.795588 35.9746 1.28274 35.9746H39.0548C39.4889 35.9746 39.8129 35.573 39.7235 35.1458L38.5746 29.6579C38.5457 29.5201 38.4754 29.3945 38.3732 29.2982L33.2028 24.4239C33.1113 24.3378 33.0452 24.2279 33.0117 24.1065L31.4691 18.5225C31.399 18.2686 31.1907 18.0774 30.9329 18.0303L27.957 17.4862C27.7314 17.4449 27.5414 17.2927 27.4511 17.0808L21.057 2.07831C20.819 1.51992 20.0304 1.52393 19.798 2.08471L17.1555 8.46199C17.0612 8.68963 16.8528 8.84899 16.6094 8.87958L14.6583 9.12482C14.4174 9.1551 14.2106 9.31163 14.1149 9.53602Z" fill="white"/>
<path d="M80.9463 28.248C79.9801 28.248 79.0915 28.0703 78.2803 27.7148C77.4782 27.3594 76.7764 26.8581 76.1748 26.2109C75.5824 25.5638 75.1221 24.7982 74.7939 23.9141C74.4749 23.0208 74.3154 22.0456 74.3154 20.9883V20.4004C74.3154 19.2611 74.484 18.2311 74.8213 17.3105C75.1585 16.39 75.6234 15.6016 76.2158 14.9453C76.8083 14.2891 77.4827 13.7878 78.2393 13.4414C79.0049 13.0859 79.807 12.9082 80.6455 12.9082C81.5843 12.9082 82.4183 13.0768 83.1475 13.4141C83.8766 13.7422 84.4873 14.2116 84.9795 14.8223C85.4808 15.4238 85.859 16.1393 86.1143 16.9688C86.3695 17.7891 86.4971 18.696 86.4971 19.6895V20.6875H75.2998V19.293H84.8701V19.1016C84.8519 18.2721 84.6833 17.4974 84.3643 16.7773C84.0544 16.0482 83.5895 15.4557 82.9697 15C82.3499 14.5443 81.5752 14.3164 80.6455 14.3164C79.9528 14.3164 79.3148 14.4622 78.7314 14.7539C78.1572 15.0456 77.6605 15.4648 77.2412 16.0117C76.8311 16.5495 76.512 17.1921 76.2842 17.9395C76.0654 18.6777 75.9561 19.498 75.9561 20.4004V20.9883C75.9561 21.8086 76.0745 22.5742 76.3115 23.2852C76.5576 23.987 76.904 24.6068 77.3506 25.1445C77.8063 25.6823 78.3441 26.1016 78.9639 26.4023C79.5837 26.7031 80.2673 26.8535 81.0146 26.8535C81.8896 26.8535 82.6644 26.694 83.3389 26.375C84.0133 26.0469 84.6195 25.5319 85.1572 24.8301L86.1826 25.623C85.8636 26.097 85.4626 26.5345 84.9795 26.9355C84.5055 27.3366 83.9359 27.6556 83.2705 27.8926C82.6051 28.1296 81.8304 28.248 80.9463 28.248Z" fill="white"/>
<path d="M91.2686 16.2441V27.9746H89.6279V13.1816H91.2002L91.2686 16.2441ZM90.9678 19.6621L90.1748 19.252C90.2295 18.377 90.3936 17.5566 90.667 16.791C90.9495 16.0254 91.3415 15.3509 91.8428 14.7676C92.3441 14.1842 92.9456 13.7285 93.6475 13.4004C94.3493 13.0723 95.1468 12.9082 96.04 12.9082C96.7601 12.9082 97.4118 13.0085 97.9951 13.209C98.5876 13.4004 99.0889 13.7057 99.499 14.125C99.9183 14.5352 100.242 15.0729 100.47 15.7383C100.698 16.4036 100.812 17.2012 100.812 18.1309V27.9746H99.1846V18.1855C99.1846 17.2012 99.0296 16.431 98.7197 15.875C98.4189 15.319 97.9951 14.9225 97.4482 14.6855C96.9105 14.4486 96.2861 14.3301 95.5752 14.3301C94.7367 14.3301 94.0257 14.5033 93.4424 14.8496C92.8682 15.1868 92.3988 15.6289 92.0342 16.1758C91.6787 16.7135 91.4144 17.2923 91.2412 17.9121C91.068 18.5228 90.9769 19.1061 90.9678 19.6621ZM100.798 18.377L99.7041 18.4043C99.7497 17.6842 99.9137 16.9961 100.196 16.3398C100.488 15.6836 100.884 15.1003 101.386 14.5898C101.887 14.0703 102.484 13.6602 103.177 13.3594C103.879 13.0586 104.667 12.9082 105.542 12.9082C106.308 12.9082 106.991 13.013 107.593 13.2227C108.194 13.4232 108.7 13.7467 109.11 14.1934C109.53 14.6309 109.849 15.1914 110.067 15.875C110.286 16.5586 110.396 17.3789 110.396 18.3359V27.9746H108.755V18.3223C108.755 17.2741 108.6 16.4629 108.29 15.8887C107.989 15.3053 107.57 14.8997 107.032 14.6719C106.494 14.444 105.866 14.3301 105.146 14.3301C104.435 14.3392 103.81 14.4714 103.272 14.7266C102.735 14.9727 102.284 15.3008 101.919 15.7109C101.563 16.112 101.29 16.5449 101.099 17.0098C100.916 17.4746 100.816 17.9303 100.798 18.377Z" fill="white"/>
<path d="M116.165 16.0254V33.6621H114.524V13.1816H116.056L116.165 16.0254ZM126.446 20.4414V20.7285C126.446 21.8314 126.319 22.8431 126.063 23.7637C125.808 24.6842 125.439 25.4818 124.956 26.1562C124.482 26.8216 123.894 27.3366 123.192 27.7012C122.491 28.0658 121.693 28.248 120.8 28.248C119.916 28.248 119.127 28.1113 118.435 27.8379C117.742 27.5645 117.145 27.1771 116.644 26.6758C116.151 26.1654 115.755 25.5729 115.454 24.8984C115.162 24.2148 114.957 23.4674 114.839 22.6562V18.8691C114.976 17.9759 115.199 17.1647 115.509 16.4355C115.819 15.7064 116.215 15.0775 116.698 14.5488C117.19 14.0202 117.774 13.6146 118.448 13.332C119.123 13.0495 119.893 12.9082 120.759 12.9082C121.661 12.9082 122.463 13.0859 123.165 13.4414C123.876 13.7878 124.473 14.2936 124.956 14.959C125.448 15.6152 125.817 16.4082 126.063 17.3379C126.319 18.2585 126.446 19.293 126.446 20.4414ZM124.806 20.7285V20.4414C124.806 19.5755 124.715 18.7734 124.532 18.0352C124.359 17.2969 124.09 16.6543 123.726 16.1074C123.37 15.5514 122.914 15.1185 122.358 14.8086C121.812 14.4987 121.16 14.3438 120.403 14.3438C119.619 14.3438 118.95 14.4759 118.394 14.7402C117.847 14.9954 117.391 15.3372 117.026 15.7656C116.662 16.1849 116.375 16.6452 116.165 17.1465C115.955 17.6478 115.8 18.14 115.7 18.623V22.9844C115.873 23.6771 116.151 24.3197 116.534 24.9121C116.917 25.4954 117.427 25.9648 118.065 26.3203C118.713 26.6667 119.501 26.8398 120.431 26.8398C121.178 26.8398 121.825 26.6849 122.372 26.375C122.919 26.0651 123.37 25.6322 123.726 25.0762C124.09 24.5202 124.359 23.873 124.532 23.1348C124.715 22.3965 124.806 21.5944 124.806 20.7285Z" fill="white"/>
<path d="M131.901 6.97461V27.9746H130.274V6.97461H131.901Z" fill="white"/>
<path d="M135.47 20.8105V20.3594C135.47 19.2839 135.625 18.2904 135.935 17.3789C136.244 16.4674 136.687 15.679 137.261 15.0137C137.844 14.3483 138.541 13.8333 139.353 13.4688C140.164 13.0951 141.066 12.9082 142.06 12.9082C143.062 12.9082 143.969 13.0951 144.78 13.4688C145.591 13.8333 146.289 14.3483 146.872 15.0137C147.455 15.679 147.902 16.4674 148.212 17.3789C148.522 18.2904 148.677 19.2839 148.677 20.3594V20.8105C148.677 21.8861 148.522 22.8796 148.212 23.791C147.902 24.6934 147.455 25.4772 146.872 26.1426C146.298 26.8079 145.605 27.3275 144.794 27.7012C143.983 28.0658 143.08 28.248 142.087 28.248C141.084 28.248 140.177 28.0658 139.366 27.7012C138.555 27.3275 137.858 26.8079 137.274 26.1426C136.691 25.4772 136.244 24.6934 135.935 23.791C135.625 22.8796 135.47 21.8861 135.47 20.8105ZM137.097 20.3594V20.8105C137.097 21.6217 137.206 22.3919 137.425 23.1211C137.644 23.8411 137.963 24.4837 138.382 25.0488C138.801 25.6048 139.321 26.0423 139.94 26.3613C140.56 26.6803 141.276 26.8398 142.087 26.8398C142.889 26.8398 143.595 26.6803 144.206 26.3613C144.826 26.0423 145.345 25.6048 145.765 25.0488C146.184 24.4837 146.498 23.8411 146.708 23.1211C146.927 22.3919 147.036 21.6217 147.036 20.8105V20.3594C147.036 19.5573 146.927 18.7962 146.708 18.0762C146.498 17.3561 146.179 16.7135 145.751 16.1484C145.332 15.5833 144.812 15.1367 144.192 14.8086C143.573 14.4805 142.862 14.3164 142.06 14.3164C141.257 14.3164 140.547 14.4805 139.927 14.8086C139.316 15.1367 138.797 15.5833 138.368 16.1484C137.949 16.7135 137.63 17.3561 137.411 18.0762C137.201 18.7962 137.097 19.5573 137.097 20.3594Z" fill="white"/>
<path d="M156.237 26.498L160.845 13.1816H162.608L156.347 30.3535C156.219 30.6908 156.055 31.0645 155.854 31.4746C155.663 31.8848 155.408 32.2767 155.089 32.6504C154.779 33.0332 154.387 33.3431 153.913 33.5801C153.448 33.8262 152.879 33.9492 152.204 33.9492C152.031 33.9492 151.808 33.9264 151.534 33.8809C151.27 33.8444 151.078 33.8079 150.96 33.7715L150.946 32.3906C151.047 32.418 151.192 32.4408 151.384 32.459C151.575 32.4772 151.707 32.4863 151.78 32.4863C152.373 32.4863 152.869 32.3861 153.271 32.1855C153.681 31.985 154.022 31.6842 154.296 31.2832C154.569 30.8913 154.811 30.3991 155.021 29.8066L156.237 26.498ZM151.931 13.1816L156.647 25.8828L157.085 27.5918L155.896 28.2617L150.153 13.1816H151.931Z" fill="white"/>
<path d="M170.688 28.248C169.722 28.248 168.834 28.0703 168.022 27.7148C167.22 27.3594 166.519 26.8581 165.917 26.2109C165.325 25.5638 164.864 24.7982 164.536 23.9141C164.217 23.0208 164.058 22.0456 164.058 20.9883V20.4004C164.058 19.2611 164.226 18.2311 164.563 17.3105C164.901 16.39 165.366 15.6016 165.958 14.9453C166.55 14.2891 167.225 13.7878 167.981 13.4414C168.747 13.0859 169.549 12.9082 170.388 12.9082C171.326 12.9082 172.16 13.0768 172.89 13.4141C173.619 13.7422 174.229 14.2116 174.722 14.8223C175.223 15.4238 175.601 16.1393 175.856 16.9688C176.112 17.7891 176.239 18.696 176.239 19.6895V20.6875H165.042V19.293H174.612V19.1016C174.594 18.2721 174.425 17.4974 174.106 16.7773C173.797 16.0482 173.332 15.4557 172.712 15C172.092 14.5443 171.317 14.3164 170.388 14.3164C169.695 14.3164 169.057 14.4622 168.474 14.7539C167.899 15.0456 167.403 15.4648 166.983 16.0117C166.573 16.5495 166.254 17.1921 166.026 17.9395C165.808 18.6777 165.698 19.498 165.698 20.4004V20.9883C165.698 21.8086 165.817 22.5742 166.054 23.2852C166.3 23.987 166.646 24.6068 167.093 25.1445C167.549 25.6823 168.086 26.1016 168.706 26.4023C169.326 26.7031 170.009 26.8535 170.757 26.8535C171.632 26.8535 172.407 26.694 173.081 26.375C173.756 26.0469 174.362 25.5319 174.899 24.8301L175.925 25.623C175.606 26.097 175.205 26.5345 174.722 26.9355C174.248 27.3366 173.678 27.6556 173.013 27.8926C172.347 28.1296 171.573 28.248 170.688 28.248Z" fill="white"/>
<path d="M185.181 28.248C184.215 28.248 183.326 28.0703 182.515 27.7148C181.713 27.3594 181.011 26.8581 180.409 26.2109C179.817 25.5638 179.356 24.7982 179.028 23.9141C178.709 23.0208 178.55 22.0456 178.55 20.9883V20.4004C178.55 19.2611 178.718 18.2311 179.056 17.3105C179.393 16.39 179.858 15.6016 180.45 14.9453C181.043 14.2891 181.717 13.7878 182.474 13.4414C183.239 13.0859 184.041 12.9082 184.88 12.9082C185.819 12.9082 186.653 13.0768 187.382 13.4141C188.111 13.7422 188.722 14.2116 189.214 14.8223C189.715 15.4238 190.093 16.1393 190.349 16.9688C190.604 17.7891 190.731 18.696 190.731 19.6895V20.6875H179.534V19.293H189.104V19.1016C189.086 18.2721 188.918 17.4974 188.599 16.7773C188.289 16.0482 187.824 15.4557 187.204 15C186.584 14.5443 185.81 14.3164 184.88 14.3164C184.187 14.3164 183.549 14.4622 182.966 14.7539C182.392 15.0456 181.895 15.4648 181.476 16.0117C181.065 16.5495 180.746 17.1921 180.519 17.9395C180.3 18.6777 180.19 19.498 180.19 20.4004V20.9883C180.19 21.8086 180.309 22.5742 180.546 23.2852C180.792 23.987 181.138 24.6068 181.585 25.1445C182.041 25.6823 182.578 26.1016 183.198 26.4023C183.818 26.7031 184.502 26.8535 185.249 26.8535C186.124 26.8535 186.899 26.694 187.573 26.375C188.248 26.0469 188.854 25.5319 189.392 24.8301L190.417 25.623C190.098 26.097 189.697 26.5345 189.214 26.9355C188.74 27.3366 188.17 27.6556 187.505 27.8926C186.84 28.1296 186.065 28.248 185.181 28.248Z" fill="white"/>
<path d="M197.95 8.06836V27.9746H193.862V8.06836H197.95Z" fill="white"/>
<path d="M205.401 16.3398V27.9746H201.464V13.1816H205.155L205.401 16.3398ZM204.827 20.0586H203.761C203.761 18.9648 203.902 17.9805 204.185 17.1055C204.467 16.2214 204.864 15.4694 205.374 14.8496C205.884 14.2207 206.491 13.7422 207.192 13.4141C207.903 13.0768 208.696 12.9082 209.571 12.9082C210.264 12.9082 210.897 13.0085 211.472 13.209C212.046 13.4095 212.538 13.7285 212.948 14.166C213.368 14.6035 213.687 15.1823 213.905 15.9023C214.133 16.6224 214.247 17.502 214.247 18.541V27.9746H210.282V18.5273C210.282 17.8711 210.191 17.3607 210.009 16.9961C209.826 16.6315 209.558 16.3763 209.202 16.2305C208.856 16.0755 208.427 15.998 207.917 15.998C207.388 15.998 206.928 16.1029 206.536 16.3125C206.153 16.5221 205.834 16.8138 205.579 17.1875C205.333 17.5521 205.146 17.9805 205.019 18.4727C204.891 18.9648 204.827 19.4935 204.827 20.0586Z" fill="white"/>
<path d="M225.239 23.8867C225.239 23.6042 225.157 23.349 224.993 23.1211C224.829 22.8932 224.524 22.6836 224.077 22.4922C223.64 22.2917 223.006 22.1094 222.177 21.9453C221.429 21.7812 220.732 21.5762 220.085 21.3301C219.447 21.0749 218.891 20.7695 218.417 20.4141C217.952 20.0586 217.588 19.6393 217.323 19.1562C217.059 18.6641 216.927 18.1035 216.927 17.4746C216.927 16.8548 217.059 16.2715 217.323 15.7246C217.597 15.1777 217.984 14.6947 218.485 14.2754C218.996 13.847 219.616 13.5143 220.345 13.2773C221.083 13.0312 221.912 12.9082 222.833 12.9082C224.118 12.9082 225.221 13.1133 226.142 13.5234C227.071 13.9336 227.782 14.4987 228.274 15.2188C228.776 15.9297 229.026 16.7409 229.026 17.6523H225.089C225.089 17.2695 225.007 16.9277 224.843 16.627C224.688 16.3171 224.442 16.0755 224.104 15.9023C223.776 15.7201 223.348 15.6289 222.819 15.6289C222.382 15.6289 222.004 15.7064 221.685 15.8613C221.366 16.0072 221.119 16.2077 220.946 16.4629C220.782 16.709 220.7 16.9824 220.7 17.2832C220.7 17.5111 220.746 17.7161 220.837 17.8984C220.937 18.0716 221.097 18.2311 221.315 18.377C221.534 18.5228 221.817 18.6595 222.163 18.7871C222.519 18.9056 222.956 19.015 223.476 19.1152C224.542 19.334 225.494 19.6211 226.333 19.9766C227.172 20.3229 227.837 20.7969 228.329 21.3984C228.821 21.9909 229.067 22.7702 229.067 23.7363C229.067 24.3926 228.922 24.9941 228.63 25.541C228.338 26.0879 227.919 26.5664 227.372 26.9766C226.825 27.3776 226.169 27.6921 225.403 27.9199C224.647 28.1387 223.795 28.248 222.847 28.248C221.47 28.248 220.304 28.002 219.347 27.5098C218.399 27.0176 217.679 26.3932 217.187 25.6367C216.703 24.8711 216.462 24.0872 216.462 23.2852H220.194C220.213 23.8229 220.349 24.2559 220.604 24.584C220.869 24.9121 221.201 25.1491 221.603 25.2949C222.013 25.4408 222.455 25.5137 222.929 25.5137C223.439 25.5137 223.863 25.4453 224.2 25.3086C224.537 25.1628 224.793 24.9714 224.966 24.7344C225.148 24.4883 225.239 24.2057 225.239 23.8867Z" fill="white"/>
<path d="M235.78 13.1816V27.9746H231.829V13.1816H235.78ZM231.583 9.32617C231.583 8.75195 231.784 8.27799 232.185 7.9043C232.586 7.5306 233.123 7.34375 233.798 7.34375C234.463 7.34375 234.996 7.5306 235.397 7.9043C235.808 8.27799 236.013 8.75195 236.013 9.32617C236.013 9.90039 235.808 10.3743 235.397 10.748C234.996 11.1217 234.463 11.3086 233.798 11.3086C233.123 11.3086 232.586 11.1217 232.185 10.748C231.784 10.3743 231.583 9.90039 231.583 9.32617Z" fill="white"/>
<path d="M246.28 13.1816V15.9707H237.667V13.1816H246.28ZM239.8 9.53125H243.737V23.5176C243.737 23.946 243.792 24.2741 243.901 24.502C244.02 24.7298 244.193 24.8893 244.421 24.9805C244.649 25.0625 244.936 25.1035 245.282 25.1035C245.528 25.1035 245.747 25.0944 245.938 25.0762C246.139 25.0488 246.308 25.0215 246.444 24.9941L246.458 27.8926C246.121 28.002 245.756 28.0885 245.364 28.1523C244.972 28.2161 244.539 28.248 244.065 28.248C243.2 28.248 242.443 28.1068 241.796 27.8242C241.158 27.5326 240.666 27.0677 240.319 26.4297C239.973 25.7917 239.8 24.9531 239.8 23.9141V9.53125Z" fill="white"/>
<path d="M255.331 28.248C254.183 28.248 253.153 28.0658 252.241 27.7012C251.33 27.3275 250.555 26.8125 249.917 26.1562C249.288 25.5 248.805 24.7389 248.468 23.873C248.131 22.998 247.962 22.0684 247.962 21.084V20.5371C247.962 19.416 248.121 18.3906 248.44 17.4609C248.759 16.5312 249.215 15.7246 249.808 15.041C250.409 14.3574 251.138 13.8333 251.995 13.4688C252.852 13.0951 253.818 12.9082 254.894 12.9082C255.942 12.9082 256.871 13.0814 257.683 13.4277C258.494 13.7741 259.173 14.2663 259.72 14.9043C260.276 15.5423 260.695 16.3079 260.978 17.2012C261.26 18.0853 261.401 19.0697 261.401 20.1543V21.7949H249.644V19.1699H257.532V18.8691C257.532 18.3223 257.432 17.8346 257.231 17.4062C257.04 16.9688 256.748 16.6224 256.356 16.3672C255.965 16.112 255.463 15.9844 254.853 15.9844C254.333 15.9844 253.886 16.0983 253.513 16.3262C253.139 16.554 252.834 16.873 252.597 17.2832C252.369 17.6934 252.196 18.1764 252.077 18.7324C251.968 19.2793 251.913 19.8809 251.913 20.5371V21.084C251.913 21.6764 251.995 22.2233 252.159 22.7246C252.332 23.2259 252.574 23.6589 252.884 24.0234C253.203 24.388 253.586 24.6706 254.032 24.8711C254.488 25.0716 255.003 25.1719 255.577 25.1719C256.288 25.1719 256.949 25.0352 257.56 24.7617C258.179 24.4792 258.713 24.0553 259.159 23.4902L261.073 25.5684C260.763 26.015 260.34 26.4434 259.802 26.8535C259.273 27.2637 258.635 27.6009 257.888 27.8652C257.14 28.1204 256.288 28.248 255.331 28.248Z" fill="white"/>
</svg>
