<svg width="262" height="35" viewBox="0 0 262 35" fill="none" xmlns="http://www.w3.org/2000/svg">
<path d="M35.0028 7.97443L33.1072 15.9165C33.0783 16.0378 33.0827 16.1648 33.1201 16.2838L35.0594 22.4589C35.0947 22.5713 35.1581 22.6727 35.2436 22.7533L40.4181 27.6314C40.5236 27.7308 40.595 27.8613 40.6221 28.0041L41.8414 34.4414C41.9028 34.7655 42.1846 35 42.5128 35H59.915C60.3437 35 60.6666 34.6077 60.5864 34.1842L59.4157 28.0041C59.3886 27.8613 59.3172 27.7308 59.2118 27.6314L54.0466 22.7621C53.9552 22.6759 53.8891 22.5661 53.8556 22.4447L52.313 16.8607C52.2429 16.6068 52.0346 16.4156 51.7768 16.3685L48.8009 15.8244C48.5753 15.7831 48.3853 15.6309 48.295 15.419L41.9009 0.416501C41.6629 -0.141889 40.8742 -0.137885 40.6419 0.422894L37.9994 6.80018C37.905 7.02782 37.6966 7.18718 37.4533 7.21777L35.5826 7.45291C35.3002 7.4884 35.0692 7.69616 35.0028 7.97443Z" fill="#012C56"/>
<path d="M14.1149 8.56141L11.194 15.4147L8.98127 20.5006C8.87244 20.7507 8.62668 20.9123 8.35516 20.9123H6.52496C6.24864 20.9123 5.9995 21.0797 5.89367 21.3363L0.651454 34.0496C0.464866 34.5021 0.795588 35 1.28274 35H39.0548C39.4889 35 39.8129 34.5984 39.7235 34.1712L38.5746 28.6833C38.5457 28.5455 38.4754 28.4199 38.3732 28.3236L33.2028 23.4493C33.1113 23.3631 33.0452 23.2533 33.0117 23.1319L31.4691 17.5479C31.399 17.294 31.1907 17.1028 30.9329 17.0557L27.957 16.5116C27.7314 16.4703 27.5414 16.3181 27.4511 16.1062L21.057 1.1037C20.819 0.545313 20.0304 0.549318 19.798 1.1101L17.1555 7.48738C17.0612 7.71502 16.8528 7.87438 16.6094 7.90497L14.6583 8.15022C14.4174 8.1805 14.2106 8.33702 14.1149 8.56141Z" fill="#012C56"/>
<path d="M80.9463 27.2734C79.9801 27.2734 79.0915 27.0957 78.2803 26.7402C77.4782 26.3848 76.7764 25.8835 76.1748 25.2363C75.5824 24.5892 75.1221 23.8236 74.7939 22.9395C74.4749 22.0462 74.3154 21.071 74.3154 20.0137V19.4258C74.3154 18.2865 74.484 17.2565 74.8213 16.3359C75.1585 15.4154 75.6234 14.627 76.2158 13.9707C76.8083 13.3145 77.4827 12.8132 78.2393 12.4668C79.0049 12.1113 79.807 11.9336 80.6455 11.9336C81.5843 11.9336 82.4183 12.1022 83.1475 12.4395C83.8766 12.7676 84.4873 13.237 84.9795 13.8477C85.4808 14.4492 85.859 15.1647 86.1143 15.9941C86.3695 16.8145 86.4971 17.7214 86.4971 18.7148V19.7129H75.2998V18.3184H84.8701V18.127C84.8519 17.2975 84.6833 16.5228 84.3643 15.8027C84.0544 15.0736 83.5895 14.4811 82.9697 14.0254C82.3499 13.5697 81.5752 13.3418 80.6455 13.3418C79.9528 13.3418 79.3148 13.4876 78.7314 13.7793C78.1572 14.071 77.6605 14.4902 77.2412 15.0371C76.8311 15.5749 76.512 16.2174 76.2842 16.9648C76.0654 17.7031 75.9561 18.5234 75.9561 19.4258V20.0137C75.9561 20.834 76.0745 21.5996 76.3115 22.3105C76.5576 23.0124 76.904 23.6322 77.3506 24.1699C77.8063 24.7077 78.3441 25.127 78.9639 25.4277C79.5837 25.7285 80.2673 25.8789 81.0146 25.8789C81.8896 25.8789 82.6644 25.7194 83.3389 25.4004C84.0133 25.0723 84.6195 24.5573 85.1572 23.8555L86.1826 24.6484C85.8636 25.1224 85.4626 25.5599 84.9795 25.9609C84.5055 26.362 83.9359 26.681 83.2705 26.918C82.6051 27.1549 81.8304 27.2734 80.9463 27.2734Z" fill="#012C56"/>
<path d="M91.2686 15.2695V27H89.6279V12.207H91.2002L91.2686 15.2695ZM90.9678 18.6875L90.1748 18.2773C90.2295 17.4023 90.3936 16.582 90.667 15.8164C90.9495 15.0508 91.3415 14.3763 91.8428 13.793C92.3441 13.2096 92.9456 12.7539 93.6475 12.4258C94.3493 12.0977 95.1468 11.9336 96.04 11.9336C96.7601 11.9336 97.4118 12.0339 97.9951 12.2344C98.5876 12.4258 99.0889 12.7311 99.499 13.1504C99.9183 13.5605 100.242 14.0983 100.47 14.7637C100.698 15.429 100.812 16.2266 100.812 17.1562V27H99.1846V17.2109C99.1846 16.2266 99.0296 15.4564 98.7197 14.9004C98.4189 14.3444 97.9951 13.9479 97.4482 13.7109C96.9105 13.474 96.2861 13.3555 95.5752 13.3555C94.7367 13.3555 94.0257 13.5286 93.4424 13.875C92.8682 14.2122 92.3988 14.6543 92.0342 15.2012C91.6787 15.7389 91.4144 16.3177 91.2412 16.9375C91.068 17.5482 90.9769 18.1315 90.9678 18.6875ZM100.798 17.4023L99.7041 17.4297C99.7497 16.7096 99.9137 16.0215 100.196 15.3652C100.488 14.709 100.884 14.1257 101.386 13.6152C101.887 13.0957 102.484 12.6855 103.177 12.3848C103.879 12.084 104.667 11.9336 105.542 11.9336C106.308 11.9336 106.991 12.0384 107.593 12.248C108.194 12.4486 108.7 12.7721 109.11 13.2188C109.53 13.6562 109.849 14.2168 110.067 14.9004C110.286 15.584 110.396 16.4043 110.396 17.3613V27H108.755V17.3477C108.755 16.2995 108.6 15.4883 108.29 14.9141C107.989 14.3307 107.57 13.9251 107.032 13.6973C106.494 13.4694 105.866 13.3555 105.146 13.3555C104.435 13.3646 103.81 13.4967 103.272 13.752C102.735 13.998 102.284 14.3262 101.919 14.7363C101.563 15.1374 101.29 15.5703 101.099 16.0352C100.916 16.5 100.816 16.9557 100.798 17.4023Z" fill="#012C56"/>
<path d="M116.165 15.0508V32.6875H114.524V12.207H116.056L116.165 15.0508ZM126.446 19.4668V19.7539C126.446 20.8568 126.319 21.8685 126.063 22.7891C125.808 23.7096 125.439 24.5072 124.956 25.1816C124.482 25.847 123.894 26.362 123.192 26.7266C122.491 27.0911 121.693 27.2734 120.8 27.2734C119.916 27.2734 119.127 27.1367 118.435 26.8633C117.742 26.5898 117.145 26.2025 116.644 25.7012C116.151 25.1908 115.755 24.5983 115.454 23.9238C115.162 23.2402 114.957 22.4928 114.839 21.6816V17.8945C114.976 17.0013 115.199 16.1901 115.509 15.4609C115.819 14.7318 116.215 14.1029 116.698 13.5742C117.19 13.0456 117.774 12.64 118.448 12.3574C119.123 12.0749 119.893 11.9336 120.759 11.9336C121.661 11.9336 122.463 12.1113 123.165 12.4668C123.876 12.8132 124.473 13.319 124.956 13.9844C125.448 14.6406 125.817 15.4336 126.063 16.3633C126.319 17.2839 126.446 18.3184 126.446 19.4668ZM124.806 19.7539V19.4668C124.806 18.6009 124.715 17.7988 124.532 17.0605C124.359 16.3223 124.09 15.6797 123.726 15.1328C123.37 14.5768 122.914 14.1439 122.358 13.834C121.812 13.5241 121.16 13.3691 120.403 13.3691C119.619 13.3691 118.95 13.5013 118.394 13.7656C117.847 14.0208 117.391 14.3626 117.026 14.791C116.662 15.2103 116.375 15.6706 116.165 16.1719C115.955 16.6732 115.8 17.1654 115.7 17.6484V22.0098C115.873 22.7025 116.151 23.3451 116.534 23.9375C116.917 24.5208 117.427 24.9902 118.065 25.3457C118.713 25.6921 119.501 25.8652 120.431 25.8652C121.178 25.8652 121.825 25.7103 122.372 25.4004C122.919 25.0905 123.37 24.6576 123.726 24.1016C124.09 23.5456 124.359 22.8984 124.532 22.1602C124.715 21.4219 124.806 20.6198 124.806 19.7539Z" fill="#012C56"/>
<path d="M131.901 6V27H130.274V6H131.901Z" fill="#012C56"/>
<path d="M135.47 19.8359V19.3848C135.47 18.3092 135.625 17.3158 135.935 16.4043C136.244 15.4928 136.687 14.7044 137.261 14.0391C137.844 13.3737 138.541 12.8587 139.353 12.4941C140.164 12.1204 141.066 11.9336 142.06 11.9336C143.062 11.9336 143.969 12.1204 144.78 12.4941C145.591 12.8587 146.289 13.3737 146.872 14.0391C147.455 14.7044 147.902 15.4928 148.212 16.4043C148.522 17.3158 148.677 18.3092 148.677 19.3848V19.8359C148.677 20.9115 148.522 21.9049 148.212 22.8164C147.902 23.7188 147.455 24.5026 146.872 25.168C146.298 25.8333 145.605 26.3529 144.794 26.7266C143.983 27.0911 143.08 27.2734 142.087 27.2734C141.084 27.2734 140.177 27.0911 139.366 26.7266C138.555 26.3529 137.858 25.8333 137.274 25.168C136.691 24.5026 136.244 23.7188 135.935 22.8164C135.625 21.9049 135.47 20.9115 135.47 19.8359ZM137.097 19.3848V19.8359C137.097 20.6471 137.206 21.4173 137.425 22.1465C137.644 22.8665 137.963 23.5091 138.382 24.0742C138.801 24.6302 139.321 25.0677 139.94 25.3867C140.56 25.7057 141.276 25.8652 142.087 25.8652C142.889 25.8652 143.595 25.7057 144.206 25.3867C144.826 25.0677 145.345 24.6302 145.765 24.0742C146.184 23.5091 146.498 22.8665 146.708 22.1465C146.927 21.4173 147.036 20.6471 147.036 19.8359V19.3848C147.036 18.5827 146.927 17.8216 146.708 17.1016C146.498 16.3815 146.179 15.7389 145.751 15.1738C145.332 14.6087 144.812 14.1621 144.192 13.834C143.573 13.5059 142.862 13.3418 142.06 13.3418C141.257 13.3418 140.547 13.5059 139.927 13.834C139.316 14.1621 138.797 14.6087 138.368 15.1738C137.949 15.7389 137.63 16.3815 137.411 17.1016C137.201 17.8216 137.097 18.5827 137.097 19.3848Z" fill="#012C56"/>
<path d="M156.237 25.5234L160.845 12.207H162.608L156.347 29.3789C156.219 29.7161 156.055 30.0898 155.854 30.5C155.663 30.9102 155.408 31.3021 155.089 31.6758C154.779 32.0586 154.387 32.3685 153.913 32.6055C153.448 32.8516 152.879 32.9746 152.204 32.9746C152.031 32.9746 151.808 32.9518 151.534 32.9062C151.27 32.8698 151.078 32.8333 150.96 32.7969L150.946 31.416C151.047 31.4434 151.192 31.4661 151.384 31.4844C151.575 31.5026 151.707 31.5117 151.78 31.5117C152.373 31.5117 152.869 31.4115 153.271 31.2109C153.681 31.0104 154.022 30.7096 154.296 30.3086C154.569 29.9167 154.811 29.4245 155.021 28.832L156.237 25.5234ZM151.931 12.207L156.647 24.9082L157.085 26.6172L155.896 27.2871L150.153 12.207H151.931Z" fill="#012C56"/>
<path d="M170.688 27.2734C169.722 27.2734 168.834 27.0957 168.022 26.7402C167.22 26.3848 166.519 25.8835 165.917 25.2363C165.325 24.5892 164.864 23.8236 164.536 22.9395C164.217 22.0462 164.058 21.071 164.058 20.0137V19.4258C164.058 18.2865 164.226 17.2565 164.563 16.3359C164.901 15.4154 165.366 14.627 165.958 13.9707C166.55 13.3145 167.225 12.8132 167.981 12.4668C168.747 12.1113 169.549 11.9336 170.388 11.9336C171.326 11.9336 172.16 12.1022 172.89 12.4395C173.619 12.7676 174.229 13.237 174.722 13.8477C175.223 14.4492 175.601 15.1647 175.856 15.9941C176.112 16.8145 176.239 17.7214 176.239 18.7148V19.7129H165.042V18.3184H174.612V18.127C174.594 17.2975 174.425 16.5228 174.106 15.8027C173.797 15.0736 173.332 14.4811 172.712 14.0254C172.092 13.5697 171.317 13.3418 170.388 13.3418C169.695 13.3418 169.057 13.4876 168.474 13.7793C167.899 14.071 167.403 14.4902 166.983 15.0371C166.573 15.5749 166.254 16.2174 166.026 16.9648C165.808 17.7031 165.698 18.5234 165.698 19.4258V20.0137C165.698 20.834 165.817 21.5996 166.054 22.3105C166.3 23.0124 166.646 23.6322 167.093 24.1699C167.549 24.7077 168.086 25.127 168.706 25.4277C169.326 25.7285 170.009 25.8789 170.757 25.8789C171.632 25.8789 172.407 25.7194 173.081 25.4004C173.756 25.0723 174.362 24.5573 174.899 23.8555L175.925 24.6484C175.606 25.1224 175.205 25.5599 174.722 25.9609C174.248 26.362 173.678 26.681 173.013 26.918C172.347 27.1549 171.573 27.2734 170.688 27.2734Z" fill="#012C56"/>
<path d="M185.181 27.2734C184.215 27.2734 183.326 27.0957 182.515 26.7402C181.713 26.3848 181.011 25.8835 180.409 25.2363C179.817 24.5892 179.356 23.8236 179.028 22.9395C178.709 22.0462 178.55 21.071 178.55 20.0137V19.4258C178.55 18.2865 178.718 17.2565 179.056 16.3359C179.393 15.4154 179.858 14.627 180.45 13.9707C181.043 13.3145 181.717 12.8132 182.474 12.4668C183.239 12.1113 184.041 11.9336 184.88 11.9336C185.819 11.9336 186.653 12.1022 187.382 12.4395C188.111 12.7676 188.722 13.237 189.214 13.8477C189.715 14.4492 190.093 15.1647 190.349 15.9941C190.604 16.8145 190.731 17.7214 190.731 18.7148V19.7129H179.534V18.3184H189.104V18.127C189.086 17.2975 188.918 16.5228 188.599 15.8027C188.289 15.0736 187.824 14.4811 187.204 14.0254C186.584 13.5697 185.81 13.3418 184.88 13.3418C184.187 13.3418 183.549 13.4876 182.966 13.7793C182.392 14.071 181.895 14.4902 181.476 15.0371C181.065 15.5749 180.746 16.2174 180.519 16.9648C180.3 17.7031 180.19 18.5234 180.19 19.4258V20.0137C180.19 20.834 180.309 21.5996 180.546 22.3105C180.792 23.0124 181.138 23.6322 181.585 24.1699C182.041 24.7077 182.578 25.127 183.198 25.4277C183.818 25.7285 184.502 25.8789 185.249 25.8789C186.124 25.8789 186.899 25.7194 187.573 25.4004C188.248 25.0723 188.854 24.5573 189.392 23.8555L190.417 24.6484C190.098 25.1224 189.697 25.5599 189.214 25.9609C188.74 26.362 188.17 26.681 187.505 26.918C186.84 27.1549 186.065 27.2734 185.181 27.2734Z" fill="#012C56"/>
<path d="M197.95 7.09375V27H193.862V7.09375H197.95Z" fill="#012C56"/>
<path d="M205.401 15.3652V27H201.464V12.207H205.155L205.401 15.3652ZM204.827 19.084H203.761C203.761 17.9902 203.902 17.0059 204.185 16.1309C204.467 15.2467 204.864 14.4948 205.374 13.875C205.884 13.2461 206.491 12.7676 207.192 12.4395C207.903 12.1022 208.696 11.9336 209.571 11.9336C210.264 11.9336 210.897 12.0339 211.472 12.2344C212.046 12.4349 212.538 12.7539 212.948 13.1914C213.368 13.6289 213.687 14.2077 213.905 14.9277C214.133 15.6478 214.247 16.5273 214.247 17.5664V27H210.282V17.5527C210.282 16.8965 210.191 16.3861 210.009 16.0215C209.826 15.6569 209.558 15.4017 209.202 15.2559C208.856 15.1009 208.427 15.0234 207.917 15.0234C207.388 15.0234 206.928 15.1283 206.536 15.3379C206.153 15.5475 205.834 15.8392 205.579 16.2129C205.333 16.5775 205.146 17.0059 205.019 17.498C204.891 17.9902 204.827 18.5189 204.827 19.084Z" fill="#012C56"/>
<path d="M225.239 22.9121C225.239 22.6296 225.157 22.3743 224.993 22.1465C224.829 21.9186 224.524 21.709 224.077 21.5176C223.64 21.3171 223.006 21.1348 222.177 20.9707C221.429 20.8066 220.732 20.6016 220.085 20.3555C219.447 20.1003 218.891 19.7949 218.417 19.4395C217.952 19.084 217.588 18.6647 217.323 18.1816C217.059 17.6895 216.927 17.1289 216.927 16.5C216.927 15.8802 217.059 15.2969 217.323 14.75C217.597 14.2031 217.984 13.7201 218.485 13.3008C218.996 12.8724 219.616 12.5397 220.345 12.3027C221.083 12.0566 221.912 11.9336 222.833 11.9336C224.118 11.9336 225.221 12.1387 226.142 12.5488C227.071 12.959 227.782 13.5241 228.274 14.2441C228.776 14.9551 229.026 15.7663 229.026 16.6777H225.089C225.089 16.2949 225.007 15.9531 224.843 15.6523C224.688 15.3424 224.442 15.1009 224.104 14.9277C223.776 14.7454 223.348 14.6543 222.819 14.6543C222.382 14.6543 222.004 14.7318 221.685 14.8867C221.366 15.0326 221.119 15.2331 220.946 15.4883C220.782 15.7344 220.7 16.0078 220.7 16.3086C220.7 16.5365 220.746 16.7415 220.837 16.9238C220.937 17.097 221.097 17.2565 221.315 17.4023C221.534 17.5482 221.817 17.6849 222.163 17.8125C222.519 17.931 222.956 18.0404 223.476 18.1406C224.542 18.3594 225.494 18.6465 226.333 19.002C227.172 19.3483 227.837 19.8223 228.329 20.4238C228.821 21.0163 229.067 21.7956 229.067 22.7617C229.067 23.418 228.922 24.0195 228.63 24.5664C228.338 25.1133 227.919 25.5918 227.372 26.002C226.825 26.403 226.169 26.7174 225.403 26.9453C224.647 27.1641 223.795 27.2734 222.847 27.2734C221.47 27.2734 220.304 27.0273 219.347 26.5352C218.399 26.043 217.679 25.4186 217.187 24.6621C216.703 23.8965 216.462 23.1126 216.462 22.3105H220.194C220.213 22.8483 220.349 23.2812 220.604 23.6094C220.869 23.9375 221.201 24.1745 221.603 24.3203C222.013 24.4661 222.455 24.5391 222.929 24.5391C223.439 24.5391 223.863 24.4707 224.2 24.334C224.537 24.1882 224.793 23.9967 224.966 23.7598C225.148 23.5137 225.239 23.2311 225.239 22.9121Z" fill="#012C56"/>
<path d="M235.78 12.207V27H231.829V12.207H235.78ZM231.583 8.35156C231.583 7.77734 231.784 7.30339 232.185 6.92969C232.586 6.55599 233.123 6.36914 233.798 6.36914C234.463 6.36914 234.996 6.55599 235.397 6.92969C235.808 7.30339 236.013 7.77734 236.013 8.35156C236.013 8.92578 235.808 9.39974 235.397 9.77344C234.996 10.1471 234.463 10.334 233.798 10.334C233.123 10.334 232.586 10.1471 232.185 9.77344C231.784 9.39974 231.583 8.92578 231.583 8.35156Z" fill="#012C56"/>
<path d="M246.28 12.207V14.9961H237.667V12.207H246.28ZM239.8 8.55664H243.737V22.543C243.737 22.9714 243.792 23.2995 243.901 23.5273C244.02 23.7552 244.193 23.9147 244.421 24.0059C244.649 24.0879 244.936 24.1289 245.282 24.1289C245.528 24.1289 245.747 24.1198 245.938 24.1016C246.139 24.0742 246.308 24.0469 246.444 24.0195L246.458 26.918C246.121 27.0273 245.756 27.1139 245.364 27.1777C244.972 27.2415 244.539 27.2734 244.065 27.2734C243.2 27.2734 242.443 27.1322 241.796 26.8496C241.158 26.5579 240.666 26.0931 240.319 25.4551C239.973 24.8171 239.8 23.9785 239.8 22.9395V8.55664Z" fill="#012C56"/>
<path d="M255.331 27.2734C254.183 27.2734 253.153 27.0911 252.241 26.7266C251.33 26.3529 250.555 25.8379 249.917 25.1816C249.288 24.5254 248.805 23.7643 248.468 22.8984C248.131 22.0234 247.962 21.0938 247.962 20.1094V19.5625C247.962 18.4414 248.121 17.416 248.44 16.4863C248.759 15.5566 249.215 14.75 249.808 14.0664C250.409 13.3828 251.138 12.8587 251.995 12.4941C252.852 12.1204 253.818 11.9336 254.894 11.9336C255.942 11.9336 256.871 12.1068 257.683 12.4531C258.494 12.7995 259.173 13.2917 259.72 13.9297C260.276 14.5677 260.695 15.3333 260.978 16.2266C261.26 17.1107 261.401 18.0951 261.401 19.1797V20.8203H249.644V18.1953H257.532V17.8945C257.532 17.3477 257.432 16.86 257.231 16.4316C257.04 15.9941 256.748 15.6478 256.356 15.3926C255.965 15.1374 255.463 15.0098 254.853 15.0098C254.333 15.0098 253.886 15.1237 253.513 15.3516C253.139 15.5794 252.834 15.8984 252.597 16.3086C252.369 16.7188 252.196 17.2018 252.077 17.7578C251.968 18.3047 251.913 18.9062 251.913 19.5625V20.1094C251.913 20.7018 251.995 21.2487 252.159 21.75C252.332 22.2513 252.574 22.6842 252.884 23.0488C253.203 23.4134 253.586 23.696 254.032 23.8965C254.488 24.097 255.003 24.1973 255.577 24.1973C256.288 24.1973 256.949 24.0605 257.56 23.7871C258.179 23.5046 258.713 23.0807 259.159 22.5156L261.073 24.5938C260.763 25.0404 260.34 25.4688 259.802 25.8789C259.273 26.2891 258.635 26.6263 257.888 26.8906C257.14 27.1458 256.288 27.2734 255.331 27.2734Z" fill="#012C56"/>
</svg>
